<?xml version="1.0" standalone="no"?>
<!DOCTYPE svg PUBLIC "-//W3C//DTD SVG 20010904//EN"
 "http://www.w3.org/TR/2001/REC-SVG-20010904/DTD/svg10.dtd">
<svg version="1.0" xmlns="http://www.w3.org/2000/svg"
 width="65.000000pt" height="57.000000pt" viewBox="0 0 65.000000 57.000000"
 preserveAspectRatio="xMidYMid meet">

<g transform="translate(0.000000,57.000000) scale(0.100000,-0.100000)"
fill="#000000" stroke="none">
<path d="M152 548 c-7 -7 -12 -41 -12 -82 0 -69 -1 -72 -35 -99 -19 -15 -35
-33 -35 -40 0 -6 7 -1 16 11 20 29 65 52 101 52 34 0 88 -31 103 -59 8 -17 15
-19 35 -11 30 11 52 5 85 -26 14 -12 37 -34 53 -48 48 -45 33 -133 -30 -165
-13 -6 -78 -11 -161 -11 l-139 0 6 -32 7 -33 239 0 240 0 0 180 0 180 -100 2
c-55 1 -108 2 -117 2 -16 1 -18 12 -18 96 l0 95 -113 0 c-75 0 -117 -4 -125
-12z"/>
<path d="M420 470 l0 -80 100 0 c55 0 100 2 100 4 0 5 -188 156 -195 156 -3 0
-5 -36 -5 -80z"/>
<path d="M31 246 c-13 -14 -21 -31 -18 -38 4 -10 6 -10 6 1 1 8 11 25 23 38
12 13 19 23 16 23 -2 0 -15 -11 -27 -24z"/>
<path d="M205 231 c-7 -12 12 -24 25 -16 11 7 4 25 -10 25 -5 0 -11 -4 -15 -9z"/>
<path d="M210 185 c0 -8 5 -15 10 -15 6 0 10 7 10 15 0 8 -4 15 -10 15 -5 0
-10 -7 -10 -15z"/>
<path d="M11 137 c-1 -23 43 -67 66 -66 14 0 15 2 3 6 -23 9 -51 36 -61 58 -7
18 -8 18 -8 2z"/>
</g>
</svg>
