<?xml version="1.0" standalone="no"?>
<!DOCTYPE svg PUBLIC "-//W3C//DTD SVG 20010904//EN"
 "http://www.w3.org/TR/2001/REC-SVG-20010904/DTD/svg10.dtd">
<svg version="1.0" xmlns="http://www.w3.org/2000/svg"
 width="128.000000pt" height="128.000000pt" viewBox="0 0 128.000000 128.000000"
 preserveAspectRatio="xMidYMid meet">

<g transform="translate(0.000000,128.000000) scale(0.100000,-0.100000)"
fill="#000000" stroke="none">
<path d="M550 1181 c-86 -28 -150 -82 -191 -161 -20 -38 -24 -60 -24 -140 0
-84 3 -101 27 -145 31 -60 77 -104 138 -136 38 -20 60 -24 140 -24 86 0 100 3
148 29 60 33 101 76 134 139 19 35 23 58 23 137 0 79 -4 102 -23 137 -33 63
-75 106 -134 138 -44 24 -67 29 -133 32 -44 1 -91 -1 -105 -6z"/>
<path d="M390 527 c-106 -84 -140 -149 -140 -273 0 -57 2 -64 31 -88 121 -102
598 -102 719 1 27 23 30 30 30 87 0 124 -41 201 -150 281 l-47 34 -38 -19
c-62 -31 -142 -44 -205 -32 -45 8 -110 31 -140 49 -3 2 -30 -17 -60 -40z"/>
</g>
</svg>
